<?xml version="1.0" encoding="UTF-8" standalone="no"?>
<!DOCTYPE svg PUBLIC "-//W3C//DTD SVG 1.1//EN"
 "http://www.w3.org/Graphics/SVG/1.1/DTD/svg11.dtd">
<!-- Generated by graphviz version 2.43.0 (0)
 -->
<!-- Title: %3 Pages: 1 -->
<svg width="208pt" height="211pt"
 viewBox="0.00 0.00 207.50 211.00" xmlns="http://www.w3.org/2000/svg" xmlns:xlink="http://www.w3.org/1999/xlink">
<g id="graph0" class="graph" transform="scale(1 1) rotate(0) translate(4 207)">
<title>%3</title>
<polygon fill="white" stroke="transparent" points="-4,4 -4,-207 203.5,-207 203.5,4 -4,4"/>
<!-- @DEFAULT -->
<g id="node1" class="node">
<title>@DEFAULT</title>
<polygon fill="none" stroke="black" points="141,-203 54,-203 54,-167 141,-167 141,-203"/>
<text text-anchor="middle" x="97.5" y="-181.3" font-family="Times,serif" font-size="14.00">@DEFAULT</text>
</g>
<!-- @INIT_MD -->
<g id="node2" class="node">
<title>@INIT_MD</title>
<polygon fill="none" stroke="black" points="85.5,-131 1.5,-131 1.5,-95 85.5,-95 85.5,-131"/>
<text text-anchor="middle" x="43.5" y="-109.3" font-family="Times,serif" font-size="14.00">@INIT_MD</text>
</g>
<!-- @DEFAULT&#45;&gt;@INIT_MD -->
<g id="edge1" class="edge">
<title>@DEFAULT&#45;&gt;@INIT_MD</title>
<path fill="none" stroke="black" d="M84.15,-166.7C77.74,-158.39 69.94,-148.28 62.89,-139.14"/>
<polygon fill="black" stroke="black" points="65.57,-136.88 56.69,-131.1 60.03,-141.16 65.57,-136.88"/>
</g>
<!-- @INIT_OPTG -->
<g id="node4" class="node">
<title>@INIT_OPTG</title>
<polygon fill="none" stroke="black" points="199.5,-131 103.5,-131 103.5,-95 199.5,-95 199.5,-131"/>
<text text-anchor="middle" x="151.5" y="-109.3" font-family="Times,serif" font-size="14.00">@INIT_OPTG</text>
</g>
<!-- @DEFAULT&#45;&gt;@INIT_OPTG -->
<g id="edge2" class="edge">
<title>@DEFAULT&#45;&gt;@INIT_OPTG</title>
<path fill="none" stroke="black" d="M110.85,-166.7C117.26,-158.39 125.06,-148.28 132.11,-139.14"/>
<polygon fill="black" stroke="black" points="134.97,-141.16 138.31,-131.1 129.43,-136.88 134.97,-141.16"/>
</g>
<!-- @INIT_MD_ -->
<g id="node3" class="node">
<title>@INIT_MD_</title>
<polygon fill="none" stroke="black" points="87,-59 0,-59 0,0 87,0 87,-59"/>
<text text-anchor="middle" x="43.5" y="-40.8" font-family="Times,serif" font-size="14.00">@FORCES</text>
<text text-anchor="middle" x="43.5" y="-25.8" font-family="Times,serif" font-size="14.00">@COORDS</text>
<text text-anchor="middle" x="43.5" y="-10.8" font-family="Times,serif" font-size="14.00">@ENDSTEP</text>
</g>
<!-- @INIT_MD&#45;&gt;@INIT_MD_ -->
<g id="edge3" class="edge">
<title>@INIT_MD&#45;&gt;@INIT_MD_</title>
<path fill="none" stroke="black" d="M43.5,-94.72C43.5,-87.33 43.5,-78.38 43.5,-69.54"/>
<polygon fill="black" stroke="black" points="47,-69.31 43.5,-59.31 40,-69.31 47,-69.31"/>
</g>
<!-- @INIT_OPTG_ -->
<g id="node5" class="node">
<title>@INIT_OPTG_</title>
<polygon fill="none" stroke="black" points="192.5,-51.5 110.5,-51.5 110.5,-7.5 192.5,-7.5 192.5,-51.5"/>
<text text-anchor="middle" x="151.5" y="-33.3" font-family="Times,serif" font-size="14.00">@COORDS</text>
<text text-anchor="middle" x="151.5" y="-18.3" font-family="Times,serif" font-size="14.00">@FORCES</text>
</g>
<!-- @INIT_OPTG&#45;&gt;@INIT_OPTG_ -->
<g id="edge4" class="edge">
<title>@INIT_OPTG&#45;&gt;@INIT_OPTG_</title>
<path fill="none" stroke="black" d="M151.5,-94.72C151.5,-85.16 151.5,-72.98 151.5,-61.81"/>
<polygon fill="black" stroke="black" points="155,-61.52 151.5,-51.52 148,-61.52 155,-61.52"/>
</g>
</g>
</svg>
